<svg xmlns="http://www.w3.org/2000/svg" viewBox="0 0 512 512">
  <path fill="#e1e1e1" d="M256 0L56.7 114.9 0 326.2 256 512l256-185.8-56.7-211.3L256 0z"/>
  <path fill="#222" d="M256 46.5l148.3 85.6L256 418.5 107.7 132.1 256 46.5m0-46.5L56.7 114.9 0 326.2 256 512l256-185.8-56.7-211.3L256 0z"/>
  <path fill="#222" d="M256 418.5L404.3 132.1 455.3 326.2 256 418.5z"/>
  <path fill="#222" d="M256 418.5L56.7 326.2 107.7 132.1 256 418.5z"/>
  <path fill="#222" d="M256 46.5L107.7 132.1 56.7 114.9 256 0 455.3 114.9 404.3 132.1 256 46.5z"/>
</svg>
